<?xml version="1.0" encoding="utf-8"?>
<!-- Generator: Adobe Illustrator 24.0.2, SVG Export Plug-In . SVG Version: 6.00 Build 0)  -->
<svg version="1.1" id="Layer_1" xmlns="http://www.w3.org/2000/svg" xmlns:xlink="http://www.w3.org/1999/xlink" x="0px" y="0px"
	 viewBox="0 0 210.5 77.9" style="enable-background:new 0 0 210.5 77.9;" xml:space="preserve">
<style type="text/css">
	.st0{fill:#EFD800;}
	.st1{fill:#FFFFFF;}
</style>
<g>
	<g>
		<path class="st0" d="M18.7,18.9H6.1v46.2h12.8c12.4,0,16.5-8.9,16.5-21.7v-2.9C35.3,31.2,34,18.9,18.7,18.9z M32.8,43.4
			c0,11.7-3.5,19.3-13.9,19.3H8.6V21.3h10.1c12.9,0,14,10.5,14,19.2V43.4z"/>
		<path class="st0" d="M74.1,30.6c0-8.1-4.4-11.7-12.8-11.7H44.6v46.2h2.6V42.3H61l10.8,22.8h2.8L63.7,42.2
			C70.5,41.6,74.1,37.9,74.1,30.6z M47.2,39.9V21.3h14.2c6.6,0,10,2.4,10,9.2s-3.4,9.3-10,9.3H47.2z"/>
		<rect x="83.4" y="18.9" class="st0" width="2.6" height="46.2"/>
		<polygon class="st0" points="124.5,60.2 101,18.9 97.7,18.9 97.7,65.1 100.2,65.1 100.2,22.4 124.5,65.1 127,65.1 127,18.9 
			124.5,18.9 		"/>
		<path class="st0" d="M177.5,9.5h-3.2l-5.3,5.3c-0.8-0.5-1.7-0.8-2.6-0.8c-2.8,0-5,2.2-5,5c0,1,0.3,1.8,0.7,2.6l-20.9,20.8V18.9
			h-2.6v46.2h2.6V45.6l9.5-9.4l15.3,28.9h2.8l-16.2-30.8l11.2-11.1c0.8,0.5,1.7,0.8,2.6,0.8c2.8,0,5-2.2,5-5c0-1-0.3-1.9-0.8-2.6
			L177.5,9.5z"/>
	</g>
	<g>
		<polygon class="st1" points="175.2,55.1 163.5,32.6 160.5,35.6 173.8,61.1 180.8,54.1 179.2,51.1 		"/>
		<polygon class="st1" points="169.4,26.8 182.6,52.3 185.6,49.3 172.3,23.8 		"/>
		<path class="st1" d="M194.3,32c-0.6-1.1-1.3-2-2.1-2.6c-0.8-0.6-1.9-1.2-3-1.6l-6.2-2c-0.3-0.1-0.5-0.2-0.8-0.3
			c-0.2-0.1-0.5-0.3-0.7-0.4c-0.2-0.2-0.4-0.4-0.6-0.6c-0.2-0.2-0.4-0.6-0.6-0.9c-0.4-0.7-0.5-1.4-0.4-2c0.1-0.7,0.4-1.3,0.9-1.8
			c0.7-0.7,1.3-0.8,2-0.4c0.7,0.4,1.4,1.3,2.1,2.7l0.6,1.2l2.3-2.3c-0.2-0.6-0.4-1.2-0.6-1.8c-0.2-0.5-0.4-1.1-0.7-1.6
			c-0.3-0.6-0.7-1.2-1.2-1.7c-0.5-0.5-1-0.8-1.6-1c-0.6-0.2-1.3-0.1-2,0.1s-1.5,0.8-2.4,1.7c-0.7,0.7-1.3,1.5-1.7,2.3
			c-0.4,0.8-0.7,1.7-0.8,2.6c-0.1,0.9-0.1,1.8,0.1,2.7c0.2,0.9,0.5,1.8,0.9,2.6c0.5,1.1,1.2,1.9,2,2.5c0.8,0.6,1.7,1.1,2.7,1.5
			l5.6,1.7c0.5,0.2,0.9,0.4,1.3,0.5c0.4,0.2,0.7,0.4,1,0.6c0.3,0.2,0.5,0.5,0.7,0.8c0.2,0.3,0.4,0.6,0.6,1c0.4,0.8,0.6,1.5,0.5,2.2
			c-0.1,0.7-0.4,1.3-1,1.9c-0.4,0.4-0.7,0.6-1,0.6c-0.3,0.1-0.7,0-1-0.2c-0.3-0.2-0.7-0.6-1-1s-0.7-1-1-1.7l-0.6-1.2l-2.3,2.3
			c0.2,0.6,0.4,1.2,0.6,1.7c0.2,0.5,0.4,1,0.7,1.6c0.4,0.7,0.8,1.3,1.2,1.8c0.5,0.5,1,0.8,1.6,1c0.6,0.2,1.3,0.1,2-0.2
			c0.7-0.3,1.5-0.8,2.4-1.7c0.7-0.7,1.3-1.5,1.7-2.3c0.4-0.8,0.7-1.7,0.8-2.6c0.1-0.9,0.1-1.8,0-2.8C195.1,33.8,194.8,32.9,194.3,32
			z"/>
		<polygon class="st1" points="192.8,8 195.9,4.8 194.3,1.8 185.1,11 186.7,14 189.8,10.9 201.5,33.4 204.5,30.4 		"/>
		<path class="st1" d="M149.5,24.2c-2.6-2.6-6,0-6,0v12l12-12C155.5,24.2,152,26.8,149.5,24.2z"/>
	</g>
</g>
</svg>
